<svg xmlns="http://www.w3.org/2000/svg" xmlns:xlink="http://www.w3.org/1999/xlink" version="1.1" x="0px" y="0px" viewBox="0 0 100 125" xml:space="preserve"><path d="M78.831,66.331C82.733,60.156,85,52.845,85,45C85,22.909,67.091,5,45,5S5,22.909,5,45s17.909,40,40,40  c7.845,0,15.156-2.267,21.331-6.169l13.58,13.58C81.569,94.069,83.817,95,86.161,95h0C91.043,95,95,91.043,95,86.161  c0-2.344-0.931-4.592-2.589-6.25L78.831,66.331z M59.997,73.819c0-0.023,0.003-0.046,0.003-0.069c0-5.078-2.174-9.692-5.696-12.786  c-1.538,1.068-3.251,1.899-5.096,2.459c1.258,0.716,2.353,1.683,3.246,2.827H41.058c-1.568,1.21-2.716,2.968-3.239,5h16.922  C54.905,72.059,55,72.893,55,73.75c0,0.756-0.075,1.504-0.21,2.24c-3.091,0.979-6.38,1.51-9.79,1.51s-6.699-0.531-9.79-1.51  C35.075,75.254,35,74.506,35,73.75c0-5.44,3.465-10.125,8.427-11.393l4.385-1.121C54.987,59.403,60,52.727,60,45  c0-5.078-2.174-9.692-5.696-12.786c-1.538,1.068-3.251,1.899-5.096,2.459c1.258,0.716,2.353,1.683,3.246,2.827H41.058  c-1.568,1.21-2.716,2.968-3.239,5h16.922C54.905,43.309,55,44.143,55,45c0,5.44-3.465,10.125-8.427,11.393l-4.385,1.121  C35.013,59.347,30,66.023,30,73.75c0,0.023,0.003,0.046,0.003,0.069c-0.044-0.023-0.089-0.045-0.134-0.069  c-0.792-0.418-1.563-0.87-2.314-1.35C18.513,66.622,12.5,56.503,12.5,45c0-12.513,7.112-23.389,17.503-28.819  c0,0.023-0.003,0.046-0.003,0.069c0,5.078,2.174,9.692,5.696,12.786c1.538-1.068,3.251-1.899,5.096-2.459  c-1.258-0.716-2.353-1.683-3.246-2.827h11.397c1.568-1.21,2.716-2.968,3.239-5H35.259C35.095,17.941,35,17.107,35,16.25  c0-0.756,0.075-1.504,0.21-2.24c3.091-0.979,6.38-1.51,9.79-1.51s6.699,0.531,9.79,1.51c0.134,0.736,0.21,1.484,0.21,2.24  c0,5.44-3.465,10.125-8.427,11.393l-4.385,1.121C35.013,30.597,30,37.273,30,45c0,5.078,2.174,9.692,5.696,12.786  c1.538-1.068,3.251-1.899,5.096-2.459c-1.258-0.716-2.353-1.683-3.246-2.827h11.397c1.568-1.21,2.716-2.968,3.239-5H35.259  C35.095,46.691,35,45.857,35,45c0-5.44,3.465-10.125,8.427-11.393l4.385-1.121C54.987,30.653,60,23.977,60,16.25  c0-0.023-0.003-0.046-0.003-0.069c0.044,0.023,0.089,0.045,0.134,0.069c0.792,0.418,1.563,0.87,2.314,1.35  C71.487,23.378,77.5,33.497,77.5,45C77.5,57.513,70.388,68.389,59.997,73.819z M86.161,90c-1.025,0-1.989-0.399-2.714-1.124  L70.44,75.869c1.978-1.632,3.797-3.451,5.429-5.429l13.007,13.007C89.601,84.172,90,85.136,90,86.161C90,88.278,88.278,90,86.161,90  z"/><text x="0" y="115" fill="#000000" font-size="5px" font-weight="bold" font-family="'Helvetica Neue', Helvetica, Arial-Unicode, Arial, Sans-serif">Created by Arthur Shlain</text><text x="0" y="120" fill="#000000" font-size="5px" font-weight="bold" font-family="'Helvetica Neue', Helvetica, Arial-Unicode, Arial, Sans-serif">from the Noun Project</text></svg>