<?xml version="1.0" encoding="UTF-8" standalone="no"?>
<!-- Created with Inkscape (http://www.inkscape.org/) -->

<svg
   xmlns:dc="http://purl.org/dc/elements/1.1/"
   xmlns:cc="http://creativecommons.org/ns#"
   xmlns:rdf="http://www.w3.org/1999/02/22-rdf-syntax-ns#"
   xmlns:svg="http://www.w3.org/2000/svg"
   xmlns="http://www.w3.org/2000/svg"
   version="1.1"
   width="100%"
   height="100%"
   viewBox="0 0 90 90"
   id="svg3389"
   xml:space="preserve"><metadata
     id="metadata3401"><rdf:RDF><cc:Work
         rdf:about=""><dc:format>image/svg+xml</dc:format><dc:type
           rdf:resource="http://purl.org/dc/dcmitype/StillImage" /><dc:title></dc:title></cc:Work></rdf:RDF></metadata><defs
     id="defs3399" /><path
     d="M 73.831,61.331 C 77.733,55.156 80,47.845 80,40 80,17.909 62.091,0 40,0 17.909,0 0,17.909 0,40 c 0,22.091 17.909,40 40,40 7.845,0 15.156,-2.267 21.331,-6.169 l 13.58,13.58 C 76.569,89.069 78.817,90 81.161,90 h 0 C 86.043,90 90,86.043 90,81.161 c 0,-2.344 -0.931,-4.592 -2.589,-6.25 l -13.58,-13.58 z m -18.834,7.488 c 0,-0.023 0.003,-0.046 0.003,-0.069 0,-5.078 -2.174,-9.692 -5.696,-12.786 -1.538,1.068 -3.251,1.899 -5.096,2.459 1.258,0.716 2.353,1.683 3.246,2.827 H 36.058 c -1.568,1.21 -2.716,2.968 -3.239,5 h 16.922 c 0.164,0.809 0.259,1.643 0.259,2.5 0,0.756 -0.075,1.504 -0.21,2.24 -3.091,0.979 -6.38,1.51 -9.79,1.51 -3.41,0 -6.699,-0.531 -9.79,-1.51 C 30.075,70.254 30,69.506 30,68.75 30,63.31 33.465,58.625 38.427,57.357 l 4.385,-1.121 C 49.987,54.403 55,47.727 55,40 c 0,-5.078 -2.174,-9.692 -5.696,-12.786 -1.538,1.068 -3.251,1.899 -5.096,2.459 1.258,0.716 2.353,1.683 3.246,2.827 H 36.058 c -1.568,1.21 -2.716,2.968 -3.239,5 H 49.741 C 49.905,38.309 50,39.143 50,40 c 0,5.44 -3.465,10.125 -8.427,11.393 l -4.385,1.121 C 30.013,54.347 25,61.023 25,68.75 c 0,0.023 0.003,0.046 0.003,0.069 C 24.959,68.796 24.914,68.774 24.869,68.75 24.077,68.332 23.306,67.88 22.555,67.4 13.513,61.622 7.5,51.503 7.5,40 7.5,27.487 14.612,16.611 25.003,11.181 25.003,11.204 25,11.227 25,11.25 c 0,5.078 2.174,9.692 5.696,12.786 1.538,-1.068 3.251,-1.899 5.096,-2.459 -1.258,-0.716 -2.353,-1.683 -3.246,-2.827 h 11.397 c 1.568,-1.21 2.716,-2.968 3.239,-5 H 30.259 C 30.095,12.941 30,12.107 30,11.25 30,10.494 30.075,9.746 30.21,9.01 33.301,8.031 36.59,7.5 40,7.5 c 3.41,0 6.699,0.531 9.79,1.51 0.134,0.736 0.21,1.484 0.21,2.24 0,5.44 -3.465,10.125 -8.427,11.393 l -4.385,1.121 C 30.013,25.597 25,32.273 25,40 c 0,5.078 2.174,9.692 5.696,12.786 1.538,-1.068 3.251,-1.899 5.096,-2.459 -1.258,-0.716 -2.353,-1.683 -3.246,-2.827 h 11.397 c 1.568,-1.21 2.716,-2.968 3.239,-5 H 30.259 C 30.095,41.691 30,40.857 30,40 30,34.56 33.465,29.875 38.427,28.607 l 4.385,-1.121 C 49.987,25.653 55,18.977 55,11.25 c 0,-0.023 -0.003,-0.046 -0.003,-0.069 0.044,0.023 0.089,0.045 0.134,0.069 0.792,0.418 1.563,0.87 2.314,1.35 C 66.487,18.378 72.5,28.497 72.5,40 72.5,52.513 65.388,63.389 54.997,68.819 z M 81.161,85 c -1.025,0 -1.989,-0.399 -2.714,-1.124 L 65.44,70.869 c 1.978,-1.632 3.797,-3.451 5.429,-5.429 L 83.876,78.447 C 84.601,79.172 85,80.136 85,81.161 85,83.278 83.278,85 81.161,85 z"
     id="path3391" /></svg>