<svg xmlns="http://www.w3.org/2000/svg" xmlns:xlink="http://www.w3.org/1999/xlink" version="1.1" x="0px" y="0px" viewBox="0 0 100 125" xml:space="preserve"><path d="M14.052,48.425c2.377-1.654,5.14-2.913,8.185-3.68c-1.357-0.59-2.569-1.351-3.594-2.246h12.991  c2.54-1.087,4.467-2.903,5.342-5H15.365C15.132,36.693,15,35.857,15,35c0-5.068,4.278-9.485,10.403-10.742l5.701-1.169  C40.758,21.108,47.5,13.67,47.5,5H40c0,5.068-4.278,9.485-10.403,10.742l-5.701,1.169C14.242,18.892,7.5,26.33,7.5,35  C7.5,40.239,9.973,45.018,14.052,48.425z"/><path d="M14.052,18.425c2.377-1.654,5.14-2.913,8.185-3.68c-1.357-0.59-2.569-1.351-3.594-2.246h12.991  c2.54-1.087,4.467-2.903,5.342-5H15.365C15.132,6.693,15,5.857,15,5H7.5C7.5,10.239,9.973,15.018,14.052,18.425z"/><path d="M14.052,78.425c2.377-1.654,5.14-2.913,8.185-3.68c-1.357-0.59-2.569-1.351-3.594-2.246h12.991  c2.54-1.087,4.467-2.903,5.342-5H15.365C15.132,66.693,15,65.857,15,65c0-5.068,4.278-9.485,10.403-10.742l5.701-1.169  C40.758,51.108,47.5,43.67,47.5,35c0-5.239-2.473-10.018-6.552-13.425c-2.377,1.654-5.14,2.913-8.185,3.68  c1.357,0.59,2.569,1.351,3.594,2.246H23.365c-2.54,1.087-4.467,2.903-5.342,5h21.612C39.868,33.307,40,34.143,40,35  c0,5.068-4.278,9.485-10.403,10.742l-5.701,1.169C14.242,48.892,7.5,56.33,7.5,65C7.5,70.239,9.973,75.018,14.052,78.425z"/><path d="M40.948,81.575c-2.377,1.654-5.14,2.913-8.185,3.68c1.357,0.59,2.569,1.351,3.594,2.246H23.365  c-2.54,1.087-4.467,2.903-5.342,5h21.612C39.868,93.307,40,94.143,40,95h7.5C47.5,89.761,45.027,84.982,40.948,81.575z"/><path d="M70,45c-10.446,0-19.392,6.409-23.13,15.508c-0.972-3.449-3.046-6.532-5.922-8.934c-2.377,1.654-5.14,2.913-8.185,3.68  c1.357,0.59,2.569,1.351,3.594,2.246H23.365c-2.54,1.087-4.467,2.903-5.342,5h21.612C39.868,63.307,40,64.143,40,65  c0,5.068-4.278,9.485-10.403,10.742l-5.701,1.169C14.242,78.892,7.5,86.33,7.5,95H15c0-5.068,4.278-9.485,10.403-10.742l5.701-1.169  c6.321-1.297,11.378-4.941,14.127-9.731c0.159,1.182,0.4,2.337,0.718,3.46C48.917,87.31,58.557,95,70,95c13.807,0,25-11.193,25-25  S83.807,45,70,45z M70,87.5c-9.65,0-17.5-7.85-17.5-17.5S60.35,52.5,70,52.5S87.5,60.35,87.5,70S79.65,87.5,70,87.5z"/><polygon points="67.5,73.964 60.518,66.982 56.982,70.518 67.5,81.036 83.018,65.518 79.482,61.982 "/><rect x="55" y="10" width="40" height="5"/><rect x="55" y="20" width="40" height="5"/><rect x="55" y="30" width="40" height="5"/><text x="0" y="115" fill="#000000" font-size="5px" font-weight="bold" font-family="'Helvetica Neue', Helvetica, Arial-Unicode, Arial, Sans-serif">Created by Arthur Shlain</text><text x="0" y="120" fill="#000000" font-size="5px" font-weight="bold" font-family="'Helvetica Neue', Helvetica, Arial-Unicode, Arial, Sans-serif">from the Noun Project</text></svg>