<?xml version="1.0" encoding="UTF-8" standalone="no"?>
<!-- Created with Inkscape (http://www.inkscape.org/) -->

<svg
   xmlns:dc="http://purl.org/dc/elements/1.1/"
   xmlns:cc="http://creativecommons.org/ns#"
   xmlns:rdf="http://www.w3.org/1999/02/22-rdf-syntax-ns#"
   xmlns:svg="http://www.w3.org/2000/svg"
   xmlns="http://www.w3.org/2000/svg"
   version="1.1"
   width="100%"
   height="100%"
   viewBox="0 0 87.5 90"
   id="svg3487"
   xml:space="preserve"><metadata
     id="metadata3515"><rdf:RDF><cc:Work
         rdf:about=""><dc:format>image/svg+xml</dc:format><dc:type
           rdf:resource="http://purl.org/dc/dcmitype/StillImage" /><dc:title></dc:title></cc:Work></rdf:RDF></metadata><defs
     id="defs3513" /><path
     d="m 6.552,43.425 c 2.377,-1.654 5.14,-2.913 8.185,-3.68 -1.357,-0.59 -2.569,-1.351 -3.594,-2.246 h 12.991 c 2.54,-1.087 4.467,-2.903 5.342,-5 H 7.865 C 7.632,31.693 7.5,30.857 7.5,30 c 0,-5.068 4.278,-9.485 10.403,-10.742 l 5.701,-1.169 C 33.258,16.108 40,8.67 40,0 h -7.5 c 0,5.068 -4.278,9.485 -10.403,10.742 l -5.701,1.169 C 6.742,13.892 0,21.33 0,30 0,35.239 2.473,40.018 6.552,43.425 z"
     id="path3489" /><path
     d="m 6.552,13.425 c 2.377,-1.654 5.14,-2.913 8.185,-3.68 C 13.38,9.155 12.168,8.394 11.143,7.499 h 12.991 c 2.54,-1.087 4.467,-2.903 5.342,-5 H 7.865 C 7.632,1.693 7.5,0.857 7.5,0 H 0 c 0,5.239 2.473,10.018 6.552,13.425 z"
     id="path3491" /><path
     d="m 6.552,73.425 c 2.377,-1.654 5.14,-2.913 8.185,-3.68 -1.357,-0.59 -2.569,-1.351 -3.594,-2.246 h 12.991 c 2.54,-1.087 4.467,-2.903 5.342,-5 H 7.865 C 7.632,61.693 7.5,60.857 7.5,60 c 0,-5.068 4.278,-9.485 10.403,-10.742 l 5.701,-1.169 C 33.258,46.108 40,38.67 40,30 40,24.761 37.527,19.982 33.448,16.575 c -2.377,1.654 -5.14,2.913 -8.185,3.68 1.357,0.59 2.569,1.351 3.594,2.246 H 15.865 c -2.54,1.087 -4.467,2.903 -5.342,5 h 21.612 c 0.233,0.806 0.365,1.642 0.365,2.499 0,5.068 -4.278,9.485 -10.403,10.742 l -5.701,1.169 C 6.742,43.892 0,51.33 0,60 0,65.239 2.473,70.018 6.552,73.425 z"
     id="path3493" /><path
     d="m 33.448,76.575 c -2.377,1.654 -5.14,2.913 -8.185,3.68 1.357,0.59 2.569,1.351 3.594,2.246 H 15.865 c -2.54,1.087 -4.467,2.903 -5.342,5 H 32.135 C 32.368,88.307 32.5,89.143 32.5,90 H 40 C 40,84.761 37.527,79.982 33.448,76.575 z"
     id="path3495" /><path
     d="m 62.5,40 c -10.446,0 -19.392,6.409 -23.13,15.508 -0.972,-3.449 -3.046,-6.532 -5.922,-8.934 -2.377,1.654 -5.14,2.913 -8.185,3.68 1.357,0.59 2.569,1.351 3.594,2.246 H 15.865 c -2.54,1.087 -4.467,2.903 -5.342,5 h 21.612 c 0.233,0.807 0.365,1.643 0.365,2.5 0,5.068 -4.278,9.485 -10.403,10.742 l -5.701,1.169 C 6.742,73.892 0,81.33 0,90 h 7.5 c 0,-5.068 4.278,-9.485 10.403,-10.742 l 5.701,-1.169 c 6.321,-1.297 11.378,-4.941 14.127,-9.731 0.159,1.182 0.4,2.337 0.718,3.46 C 41.417,82.31 51.057,90 62.5,90 c 13.807,0 25,-11.193 25,-25 0,-13.807 -11.193,-25 -25,-25 z m 0,42.5 C 52.85,82.5 45,74.65 45,65 45,55.35 52.85,47.5 62.5,47.5 72.15,47.5 80,55.35 80,65 80,74.65 72.15,82.5 62.5,82.5 z"
     id="path3497" /><polygon
     points="83.018,65.518 79.482,61.982 67.5,73.964 60.518,66.982 56.982,70.518 67.5,81.036 "
     transform="translate(-7.5,-5)"
     id="polygon3499" /><rect
     width="40"
     height="5"
     x="47.5"
     y="5"
     id="rect3501" /><rect
     width="40"
     height="5"
     x="47.5"
     y="15"
     id="rect3503" /><rect
     width="40"
     height="5"
     x="47.5"
     y="25"
     id="rect3505" /></svg>