<?xml version="1.0" encoding="UTF-8" standalone="no"?>
<!-- Created with Inkscape (http://www.inkscape.org/) -->

<svg
   xmlns:dc="http://purl.org/dc/elements/1.1/"
   xmlns:cc="http://creativecommons.org/ns#"
   xmlns:rdf="http://www.w3.org/1999/02/22-rdf-syntax-ns#"
   xmlns:svg="http://www.w3.org/2000/svg"
   xmlns="http://www.w3.org/2000/svg"
   version="1.1"
   width="100%"
   height="100%"
   viewBox="0 0 90.110742 91.350234"
   id="svg3585"
   xml:space="preserve"><metadata
     id="metadata3597"><rdf:RDF><cc:Work
         rdf:about=""><dc:format>image/svg+xml</dc:format><dc:type
           rdf:resource="http://purl.org/dc/dcmitype/StillImage" /><dc:title></dc:title></cc:Work></rdf:RDF></metadata><defs
     id="defs3595" /><path
     d="m 89.871085,32.150234 c -0.8,-3.6 -3.6,-6 -8,-6.7 0.7,-3.4 0.1,-6.4 -1.9,-8.7 -4,-4.5 -12,-5.4 -20.7,-2.3 -2.2,-7.8000001 -8,-13.90000007 -13.9,-14.40000007 -3.7,-0.4 -6.8,1.59999997 -8.9,5.59999997 -3.6,-2.1 -7.5,-2.2 -10.7,-0.2 -4.9,3 -7.5,10.0000001 -6.8,18.2000001 -7.9,-0.3 -15.4000005,3.3 -17.8000005,8.5 -1.5,3.4 -0.6,7 2.5,10.3 -2.7,2.5 -4,5.6 -3.6,8.9 0.7,6.2 6.8,11.3 15.4000005,13.3 -2.8,7.6 -1.6,15.9 2.8,19.8 2.8,2.5 6.5,2.7 10.4,0.7 1.4,3.1 3.7,5.2 6.7,5.9 0.8,0.2 1.5,0.3 2.3,0.3 5.3,0 11.2,-3.9 15.7,-10.5 6.3,5 14.7,6.5 19.7,3.5 3.2,-1.9 4.6,-5.3 3.9,-9.7 3.4,-0.4 6.1,-1.9 7.6,-4.5 3.1,-5.1 1.4,-13 -4.3,-20.3 6.8,-4.5 10.9,-11.9 9.6,-17.7 z m -10.5,16.5 c -0.6,-0.8 -1.2,-1.6 -1.6,-2.3 l 5.1,-0.5 c -1,1 -2.2,2 -3.5,2.8 z m 5.1,-4.5 -7.4,0.8 c -0.4,-0.8 -0.6,-1.6 -0.7,-2.5 l 10.5,-1.9 c -0.7,1.3 -1.5,2.5 -2.4,3.6 z m 3.2,-5.2 -11.4,2 c 0,-0.9 0.1,-1.8 0.4,-2.8 l 12,-3.3 c -0.1,1.3 -0.5,2.7 -1,4.1 z m 0.7,-6.5 c 0.1,0.3 0.1,0.5 0.1,0.8 l -11.5,3.2 c 0.4,-1.1 0.9,-2.2 1.5,-3.5 l 8.5,-3.4 c 0.7,0.8 1.2,1.8 1.4,2.9 z m -2.7,-4 -6,2.4 c 0.1,-0.1 0.1,-0.2 0.2,-0.3 0.7,-1.2 1.2,-2.5 1.6,-3.7 1.7,0.3 3.1,0.8 4.2,1.6 z m -5.3,-3.2 c -0.8,-0.1 -1.6,-0.1 -2.5,-0.2 -0.5,0 -1,-0.1 -1.5,-0.1 l 4.1,-3.9 c 0.2,1.3 0.2,2.7 -0.1,4.2 z m -1.6,-7.5 c 0.5,0.5 0.8,1.1 1.1,1.8 l -5.6,5.3 c -1.1,-0.1 -2.3,-0.3 -3.4,-0.5 l 6.6,-7.7 c 0.5,0.2 0.9,0.6 1.3,1.1 z m -2.5,-2 -7,8.2 c -1,-0.2 -2,-0.6 -3,-0.9 l 6.6,-8.5 c 1.3,0.2 2.4,0.6 3.4,1.2 z m -5.1,-1.6 -6.3,8.1 c -0.9,-0.5 -1.6,-1 -2.3,-1.6 l 4.4,-6.5 c 1.5,-0.1 2.9,-0.1 4.2,0 z m -6.2,0.3 -3.5,5.1 c -0.8,-1 -1.4,-2.2 -1.9,-3.7 1.9,-0.6 3.7,-1.1 5.4,-1.4 z m -8.7,-3.7 c 0.7,1.3 1.2,2.7 1.6,4.2 -0.9,0.3 -1.8,0.6 -2.7,0.8 l 1.1,-5 z m -1.1,-1.9000001 -1.5,7.2000001 c -0.9,0.1 -1.8,0.1 -2.6,-0.1 l 1.5,-10.5000001 c 0.9,1 1.8,2.1 2.6,3.4 z m -7.7,-6.8 c 1.2,0.5 2.5,1.2 3.6,2.2 l -1.6,11.4000001 c -0.8,-0.3 -1.7,-0.7 -2.6,-1.2 l 0.6,-12.4000001 z m -2.2,-0.6 c 0.2,0.1 0.5,0.1 0.7,0.1 l -0.5,11.8000001 c -0.9,-0.7 -1.9,-1.5 -2.9,-2.5 l -0.6,-9.0000001 c 1,-0.3 2.1,-0.5 3.3,-0.4 z m -4.7,1.4 0.4,6.4 c -0.1,-0.1 -0.1,-0.2 -0.2,-0.2 -1,-1.1 -2,-1.9 -3,-2.7 0.8,-1.5 1.7,-2.7 2.8,-3.5 z m -4.7,4.1 c -0.3,0.7 -0.6,1.5 -1,2.3 -0.2,0.5 -0.4,1.0000001 -0.6,1.5000001 l -2.5,-5.2000001 c 1.4,0.1 2.8,0.6 4.1,1.4 z m -9.3,-0.3 c 1.1,-0.7 2.3,-1.1 3.6,-1.2 l 3.4,7.0000001 c -0.5,1 -1,2.1 -1.5,3.1 l -5.5,-8.9000001 c 0,0 0,0 0,0 z m -1.2,0.9 5.8,9.5000001 c -0.6,0.9 -1.2,1.7 -1.8,2.5 l -6.3,-9.2 c 0.6,-1.1000001 1.4,-2.0000001 2.3,-2.8000001 z m -3.1,4.3000001 6,8.9 c -0.7,0.7 -1.5,1.2 -2.3,1.7 l -5,-6.6 c 0.3,-1.4 0.7,-2.8 1.3,-4 z m -1.7,6 4,5.2 c -1.2,0.5 -2.6,0.7 -4,0.6 -0.2,-2 -0.2,-3.9 0,-5.8 z m -1.5,7.3 c 0,1 -0.1,1.9 -0.2,2.8 l -4.3,-2.5 c 1.5,-0.3 3,-0.4 4.5,-0.3 z m -6.7,0.7 6.3,3.6 c -0.2,0.9 -0.5,1.7 -0.9,2.5 l -9.4000005,-4.6 c 1.2,-0.7 2.6000005,-1.2 4.0000005,-1.5 z m -5.6000005,2.3 10.2000005,5 c -0.5,0.7 -1.1,1.4 -1.9,2.1 l -11.4000005,-4.2 c 0.8,-1.1 1.8,-2 3.1,-2.9 z m -4.2,4.6 c 0.1,-0.1 0.1,-0.3 0.2,-0.4 l 11.0000005,4.1 c -0.9,0.7 -2,1.3 -3.2,2 l -8.5000005,-2.1 c -0.2,-1.3 0,-2.5 0.5,-3.6 z m -0.1,5.2 6,1.5 c -0.1,0 -0.2,0.1 -0.2,0.1 -1.3,0.6 -2.4,1.3 -3.4,2 -1.2,-1.2 -2,-2.4 -2.4,-3.6 z m 2.3,5.6 c 0.4,0.4 0.9,0.7 1.3,1.1 0.6,0.5 1.2,1 1.9,1.6 l -5.8,0.8 c 0.5,-1.3 1.4,-2.5 2.6,-3.5 z m -3.3,7.7 c -0.1,-0.9 -0.1,-1.8 0.1,-2.7 l 7.8,-1 c 0.8000005,0.8 1.7000005,1.5 2.5000005,2.4 l -10.2000005,2.4 c -0.1,-0.4 -0.1,-0.7 -0.2,-1.1 z m 0.7,2.5 10.9000005,-2.6 c 0.7,0.8 1.3,1.6 1.8,2.5 l -10.8000005,3.2 c -0.8,-1 -1.5,-2 -1.9,-3.1 z m 3.1,4.3 10.3000005,-3 c 0.4,0.9 0.7,1.8 0.9,2.7 l -7.8000005,2.8 0,0 c -1.3,-0.7 -2.4,-1.6 -3.4,-2.5 z m 5.2000005,3.4 6.1,-2.2 c 0,1.3 -0.2,2.6 -0.7,4 -1.8,-0.4 -3.6,-1 -5.4,-1.8 z m 6.4,3.7 c 0.9,0.3 1.8,0.7 2.6,1 l -3.7,3.3 c 0.2,-1.4 0.5,-2.9 1.1,-4.3 z m -1.4,6.6 5.4,-4.8 c 0.8,0.5 1.5,1 2.1,1.6 l -7.3,7.5 c -0.2,-1.4 -0.3,-2.9 -0.2,-4.3 z m 2.2,9.9 c -0.7,-1.1 -1.3,-2.4 -1.7,-3.9 l 7.9,-8.1 c 0.5,0.7 1,1.5 1.4,2.4 l -7.6,9.6 z m 4.4,3.3 c -1.1,-0.2 -2,-0.7 -2.9,-1.5 -0.2,-0.2 -0.4,-0.3 -0.5,-0.5 l 7.3,-9.2 c 0.3,1.1 0.6,2.3 0.9,3.7 l -4.8,7.5 z m 1.7,0.1 3.4,-5.4 c 0,0.1 0,0.2 0,0.3 0.2,1.4 0.4,2.7 0.8,3.9 -1.4,0.8 -2.9,1.2 -4.2,1.2 z m 8.6,3 c -1,-0.9 -1.8,-2.1 -2.5,-3.5 0.7,-0.4 1.4,-0.8 2.1,-1.3 0.4,-0.3 0.9,-0.6 1.4,-0.8 l -1,5.6 z m 4.9,1.9 c -0.6,0 -1.2,-0.1 -1.7,-0.2 -0.7,-0.2 -1.3,-0.4 -1.9,-0.7 l 1.4,-7.6 c 1,-0.6 2,-1.1 3,-1.6 l -0.8,10.1 z m 5,-1.1 c -1.2,0.5 -2.3,0.9 -3.5,1 l 0.9,-10.8 c 1,-0.4 2,-0.7 3,-1 l -0.4,10.8 z m 1.6,-0.8 0.3,-10.2 c 1,-0.1 1.9,-0.2 2.9,0 l 0.2,7.8 c -1.2,0.9 -2.3,1.7 -3.4,2.4 z m 4.8,-3.9 -0.2,-6.1 c 1.2,0.3 2.4,0.9 3.6,1.9 -1,1.6 -2.2,3 -3.4,4.2 z m 4.3,-5.5 c -7.3,-5.6 -16,-0.3 -21.7,3.3 -0.7,0.4 -1.3,0.8 -1.9,1.1 -0.3,-1 -0.5,-2.1 -0.7,-3.3 -1.2,-10.5 -4.5,-13.6 -11.3,-16 3.3,-9 -4.9,-15.8 -10.4000005,-20.2 -0.4,-0.3 -0.7,-0.6 -1.1,-0.9 0.9,-0.6 1.8,-1.2 2.9,-1.7 9.6000005,-4.4 11.6000005,-8.5 11.8000005,-15.7 9.3,0.4 13.1,-9.1 15.7,-15.4000001 0.3,-0.7 0.6,-1.4 0.8,-2 0.8,0.6 1.7,1.4 2.5,2.3000001 6.7,7.3 11.3,8.9 18.6,6.4 2.6,8.7 12.8,9.5 19.6,10 0.8,0.1 1.5,0.1 2.2,0.2 -0.3,1 -0.8,2 -1.4,3.1 -4.9,8.7 -5,13.6 -0.4,19.7 -7.5,5.2 -5.1,15.1 -3.5,21.7 0.2,0.7 0.3,1.4 0.5,2.1 -1.1,0 -2.2,-0.1 -3.4,-0.4 -9.8,-2 -14.5,-0.6 -18.8,5.7 z m 1.2,1 c 0.6,-0.8 1.1,-1.6 1.7,-2.2 l 2.1,4.7 c -1.4,-0.8 -2.7,-1.6 -3.8,-2.5 z m 5.8,3.3 -3,-6.8 c 0.7,-0.6 1.4,-1.1 2.2,-1.5 l 5,9.4 c -1.4,-0.1 -2.8,-0.5 -4.2,-1.1 z m 5.9,1.4 -5.4,-10.2 c 0.8,-0.3 1.7,-0.4 2.8,-0.5 l 6.8,10.4 c -1.2,0.3 -2.7,0.4 -4.2,0.3 z m 6.4,-1.3 c -0.2,0.1 -0.5,0.3 -0.7,0.4 l -6.5,-9.9 c 1.1,0 2.4,0.1 3.8,0.3 l 5.8,6.9 c -0.6,1 -1.4,1.7 -2.4,2.3 z m 3,-3.8 -4.2,-5 c 0.1,0 0.2,0 0.3,0.1 1.4,0.3 2.7,0.4 4,0.4 0.3,1.7 0.3,3.2 -0.1,4.5 z m 1.4,-6 c -0.2,-0.7 -0.4,-1.5 -0.6,-2.4 -0.1,-0.5 -0.3,-1 -0.4,-1.6 l 5,2.7 c -1.1,0.7 -2.5,1.1 -4,1.3 z m 6.6,-3.8 c -0.3,0.6 -0.8,1.1 -1.3,1.6 l -6.7,-3.7 c -0.2,-1.1 -0.4,-2.2 -0.6,-3.4 l 9.3,3.9 c -0.1,0.5 -0.4,1.1 -0.7,1.6 z m 1.2,-3.1 -9.9,-4.1 c -0.1,-1.1 -0.1,-2.1 0,-3.1 l 10,3.6 c 0.1,1.3 0.1,2.5 -0.1,3.6 z m -0.2,-5.3 -9.6,-3.4 c 0.2,-1 0.4,-1.9 0.8,-2.7 l 7.4,2.2 c 0.7,1.3 1.1,2.6 1.4,3.9 z m -8,-7.5 c 0.7,-1.1 1.6,-2 2.8,-2.9 1.2,1.5 2.2,3 3,4.6 l -5.8,-1.7 z"
     id="path3587" /></svg>