<svg xmlns="http://www.w3.org/2000/svg" xmlns:xlink="http://www.w3.org/1999/xlink" version="1.1" x="0px" y="0px" viewBox="0 0 64 80" style="enable-background:new 0 0 64 64;" xml:space="preserve"><g><path d="M27,31.78V18h5v-7h-2.069C29.436,7.06,26.072,4,22,4c-0.559,0-1.109,0.061-1.645,0.173C18.845,2.179,16.526,1,14,1   C9.589,1,6,4.589,6,9v24c0,1.654,1.346,3,3,3c0.351,0,0.687-0.061,1-0.171V42c0,1.654,1.346,3,3,3s3-1.346,3-3V13h14v3H18v2h7   l0,14.22l11.79,25.545c0.137,0.298,0.21,0.628,0.21,0.956C37,59.978,35.977,61,34.72,61H5.28C4.023,61,3,59.978,3,58.721   c0-0.328,0.073-0.658,0.209-0.956l6.16-13.346l-1.815-0.838l-6.16,13.346C1.136,57.485,1,58.105,1,58.721C1,61.08,2.92,63,5.28,63   h29.44c2.36,0,4.28-1.92,4.28-4.279c0-0.615-0.136-1.235-0.394-1.794L27,31.78z M14,11v31c0,0.552-0.449,1-1,1s-1-0.448-1-1v-8v-1   V19h-2v14c0,0.552-0.449,1-1,1s-1-0.448-1-1V9c0-3.309,2.691-6,6-6c1.672,0,3.221,0.694,4.343,1.885   c-0.705,0.363-1.36,0.831-1.941,1.401l1.399,1.429C18.929,6.608,20.42,6,22,6c2.967,0,5.431,2.167,5.91,5H14z"/><path d="M34.787,44.689l0.427,1.953C42.043,45.15,47,38.992,47,32c0-7.416-5.528-13.799-12.858-14.848l-0.283,1.979   C40.21,20.041,45,25.573,45,32C45,38.06,40.705,43.396,34.787,44.689z"/><path d="M13,58c2.206,0,4-1.794,4-4s-1.794-4-4-4s-4,1.794-4,4S10.794,58,13,58z M13,52c1.103,0,2,0.897,2,2s-0.897,2-2,2   s-2-0.897-2-2S11.897,52,13,52z"/><path d="M20,44c0,2.206,1.794,4,4,4s4-1.794,4-4s-1.794-4-4-4S20,41.794,20,44z M24,42c1.103,0,2,0.897,2,2s-0.897,2-2,2   s-2-0.897-2-2S22.897,42,24,42z"/><path d="M20,25c-1.654,0-3,1.346-3,3s1.346,3,3,3s3-1.346,3-3S21.654,25,20,25z M20,29c-0.551,0-1-0.449-1-1s0.449-1,1-1   s1,0.449,1,1S20.551,29,20,29z"/><path d="M63,38.781V25.219l-6.382-1.596c-0.417-1.224-0.937-2.435-1.545-3.605l-1.774,0.923c0.645,1.238,1.179,2.523,1.588,3.82   l0.168,0.533L61,26.781V37.22l-5.945,1.485l-0.168,0.534c-0.409,1.293-0.943,2.579-1.588,3.82l-0.258,0.496l3.157,5.26   l-7.381,7.382l-5.261-3.157l-0.497,0.259c-1.236,0.644-2.521,1.178-3.819,1.587l0.602,1.908c1.233-0.39,2.455-0.882,3.639-1.467   l5.646,3.388l9.59-9.589l-3.388-5.646c0.501-1.015,0.934-2.055,1.291-3.104L63,38.781z"/><path d="M38.706,8.945l0.533,0.168c1.296,0.41,2.582,0.944,3.82,1.588l0.496,0.258l5.261-3.157l7.933,7.933l1.414-1.414   l-9.038-9.038l-5.646,3.388c-1.013-0.5-2.053-0.933-3.103-1.291L38.781,1H26v2h11.219L38.706,8.945z"/></g><text x="0" y="79" fill="#000000" font-size="5px" font-weight="bold" font-family="'Helvetica Neue', Helvetica, Arial-Unicode, Arial, Sans-serif">Created by Eucalyp</text><text x="0" y="84" fill="#000000" font-size="5px" font-weight="bold" font-family="'Helvetica Neue', Helvetica, Arial-Unicode, Arial, Sans-serif">from the Noun Project</text></svg>