<?xml version="1.0" encoding="UTF-8" standalone="no"?>
<!-- Created with Inkscape (http://www.inkscape.org/) -->

<svg
   xmlns:dc="http://purl.org/dc/elements/1.1/"
   xmlns:cc="http://creativecommons.org/ns#"
   xmlns:rdf="http://www.w3.org/1999/02/22-rdf-syntax-ns#"
   xmlns:svg="http://www.w3.org/2000/svg"
   xmlns="http://www.w3.org/2000/svg"
   version="1.1"
   width="100%"
   height="100%"
   viewBox="0 0 62 62"
   id="svg3083"
   xml:space="preserve"><metadata
     id="metadata3109"><rdf:RDF><cc:Work
         rdf:about=""><dc:format>image/svg+xml</dc:format><dc:type
           rdf:resource="http://purl.org/dc/dcmitype/StillImage" /><dc:title></dc:title></cc:Work></rdf:RDF></metadata><defs
     id="defs3107" /><g
     transform="translate(-1,-1)"
     id="g3085"><path
       d="M 27,31.78 V 18 h 5 V 11 H 29.931 C 29.436,7.06 26.072,4 22,4 21.441,4 20.891,4.061 20.355,4.173 18.845,2.179 16.526,1 14,1 9.589,1 6,4.589 6,9 v 24 c 0,1.654 1.346,3 3,3 0.351,0 0.687,-0.061 1,-0.171 V 42 c 0,1.654 1.346,3 3,3 1.654,0 3,-1.346 3,-3 V 13 h 14 v 3 H 18 v 2 h 7 l 0,14.22 11.79,25.545 C 36.927,58.063 37,58.393 37,58.721 37,59.978 35.977,61 34.72,61 H 5.28 C 4.023,61 3,59.978 3,58.721 3,58.393 3.073,58.063 3.209,57.765 L 9.369,44.419 7.554,43.581 1.394,56.927 C 1.136,57.485 1,58.105 1,58.721 1,61.08 2.92,63 5.28,63 H 34.72 C 37.08,63 39,61.08 39,58.721 39,58.106 38.864,57.486 38.606,56.927 L 27,31.78 z M 14,11 v 31 c 0,0.552 -0.449,1 -1,1 -0.551,0 -1,-0.448 -1,-1 V 34 33 19 H 10 V 33 C 10,33.552 9.551,34 9,34 8.449,34 8,33.552 8,33 V 9 c 0,-3.309 2.691,-6 6,-6 1.672,0 3.221,0.694 4.343,1.885 -0.705,0.363 -1.36,0.831 -1.941,1.401 l 1.399,1.429 C 18.929,6.608 20.42,6 22,6 c 2.967,0 5.431,2.167 5.91,5 H 14 z"
       id="path3087" /><path
       d="m 34.787,44.689 0.427,1.953 C 42.043,45.15 47,38.992 47,32 47,24.584 41.472,18.201 34.142,17.152 l -0.283,1.979 C 40.21,20.041 45,25.573 45,32 45,38.06 40.705,43.396 34.787,44.689 z"
       id="path3089" /><path
       d="m 13,58 c 2.206,0 4,-1.794 4,-4 0,-2.206 -1.794,-4 -4,-4 -2.206,0 -4,1.794 -4,4 0,2.206 1.794,4 4,4 z m 0,-6 c 1.103,0 2,0.897 2,2 0,1.103 -0.897,2 -2,2 -1.103,0 -2,-0.897 -2,-2 0,-1.103 0.897,-2 2,-2 z"
       id="path3091" /><path
       d="m 20,44 c 0,2.206 1.794,4 4,4 2.206,0 4,-1.794 4,-4 0,-2.206 -1.794,-4 -4,-4 -2.206,0 -4,1.794 -4,4 z m 4,-2 c 1.103,0 2,0.897 2,2 0,1.103 -0.897,2 -2,2 -1.103,0 -2,-0.897 -2,-2 0,-1.103 0.897,-2 2,-2 z"
       id="path3093" /><path
       d="m 20,25 c -1.654,0 -3,1.346 -3,3 0,1.654 1.346,3 3,3 1.654,0 3,-1.346 3,-3 0,-1.654 -1.346,-3 -3,-3 z m 0,4 c -0.551,0 -1,-0.449 -1,-1 0,-0.551 0.449,-1 1,-1 0.551,0 1,0.449 1,1 0,0.551 -0.449,1 -1,1 z"
       id="path3095" /><path
       d="M 63,38.781 V 25.219 l -6.382,-1.596 c -0.417,-1.224 -0.937,-2.435 -1.545,-3.605 l -1.774,0.923 c 0.645,1.238 1.179,2.523 1.588,3.82 L 55.055,25.294 61,26.781 V 37.22 l -5.945,1.485 -0.168,0.534 c -0.409,1.293 -0.943,2.579 -1.588,3.82 l -0.258,0.496 3.157,5.26 -7.381,7.382 -5.261,-3.157 -0.497,0.259 c -1.236,0.644 -2.521,1.178 -3.819,1.587 l 0.602,1.908 c 1.233,-0.39 2.455,-0.882 3.639,-1.467 l 5.646,3.388 9.59,-9.589 -3.388,-5.646 c 0.501,-1.015 0.934,-2.055 1.291,-3.104 L 63,38.781 z"
       id="path3097" /><path
       d="m 38.706,8.945 0.533,0.168 c 1.296,0.41 2.582,0.944 3.82,1.588 l 0.496,0.258 5.261,-3.157 7.933,7.933 1.414,-1.414 -9.038,-9.038 -5.646,3.388 C 42.466,8.171 41.426,7.738 40.376,7.38 L 38.781,1 H 26 v 2 h 11.219 l 1.487,5.945 z"
       id="path3099" /></g></svg>