<?xml version="1.0" encoding="UTF-8" standalone="no"?>
<!-- Created with Inkscape (http://www.inkscape.org/) -->

<svg
   xmlns:dc="http://purl.org/dc/elements/1.1/"
   xmlns:cc="http://creativecommons.org/ns#"
   xmlns:rdf="http://www.w3.org/1999/02/22-rdf-syntax-ns#"
   xmlns:svg="http://www.w3.org/2000/svg"
   xmlns="http://www.w3.org/2000/svg"
   version="1.1"
   width="100%"
   height="100%"
   viewBox="0 0 414 220.4"
   id="svg3225"
   xml:space="preserve"><metadata
     id="metadata3255"><rdf:RDF><cc:Work
         rdf:about=""><dc:format>image/svg+xml</dc:format><dc:type
           rdf:resource="http://purl.org/dc/dcmitype/StillImage" /><dc:title></dc:title></cc:Work></rdf:RDF></metadata><defs
     id="defs3253" /><g
     transform="translate(-43,-159.6)"
     id="g3227"><path
       d="M 404,204 H 365.5 V 159.6 H 119 v 179.5 h 41.7 c 1.4,-4.4 2.8,-9.7 5.3,-14 H 133 V 173.6 H 351.5 V 325.1 H 239 c 3.2,4 5.6,8.9 7.2,14 h 105.4 7.2 6.8 v -16.8 c 0,0 0,0 0,-0.1 V 218 H 404 c 10,0 19.1,3.8 26,10 h -35 v 53 h 48 v 44.1 h -5.9 c 0.2,0.4 0.5,0.7 0.7,1.1 2.7,4.1 5.2,8.4 7.1,12.9 H 457 V 257 c 0,-29.2 -23.8,-53 -53,-53 z m 5,63 v -25 h 31 c 1.9,4.6 3,9.7 3,15 v 10 h -34 z"
       id="path3229" /><path
       d="m 201.8,312 c -18.7,0 -34,15.3 -34,34 0,18.7 15.3,34 34,34 18.7,0 34,-15.3 34,-34 0,-18.7 -15.3,-34 -34,-34 z m 0,54 c -11,0 -20,-9 -20,-20 0,-11 9,-20 20,-20 11,0 20,9 20,20 0,11 -9,20 -20,20 z"
       id="path3231" /><circle
       cx="201.8"
       cy="346"
       r="13.9"
       id="circle3233" /><path
       d="m 402.1,312 c -18.7,0 -34,15.3 -34,34 0,18.7 15.3,34 34,34 18.7,0 34,-15.3 34,-34 0,-18.7 -15.3,-34 -34,-34 z m 0,54 c -11,0 -20,-9 -20,-20 0,-11 9,-20 20,-20 11,0 20,9 20,20 0,11 -9,20 -20,20 z"
       id="path3235" /><circle
       cx="402.10001"
       cy="346"
       r="13.9"
       id="circle3237" /><rect
       width="52"
       height="14"
       x="43"
       y="162"
       id="rect3239" /><rect
       width="40"
       height="14"
       x="55"
       y="192"
       id="rect3241" /><path
       d="m 245,299 c 30.9,0 56,-25.1 56,-56 0,-30.9 -25.1,-56 -56,-56 -30.9,0 -56,25.1 -56,56 0,30.9 25.1,56 56,56 z m 0,-98 c 23.2,0 42,18.8 42,42 0,23.2 -18.8,42 -42,42 -23.2,0 -42,-18.8 -42,-42 0,-23.2 18.8,-42 42,-42 z"
       id="path3243" /><polygon
       points="218.3,249.2 243.3,271.5 271.8,230 260.2,222 240.7,250.5 227.7,238.8 "
       id="polygon3245" /></g></svg>